<svg xmlns="http://www.w3.org/2000/svg" xmlns:xlink="http://www.w3.org/1999/xlink" width="2320" height="1630" viewBox="0 0 2320 1630"><defs><clipPath id="b"><rect width="2320" height="1630"/></clipPath></defs><g id="a" clip-path="url(#b)"><g transform="translate(-413 -754.735)"><path d="M338.03,0a79.362,79.362,0,0,0,79.31-74.69V-447.37a79.471,79.471,0,0,0-79.31-75.46H23.1v157.85H49.28v207.9H23.1V0ZM231.77-64.68H205.59V-446.6h26.18c14.63,0,26.18,12.32,26.18,26.95V-90.86A25.964,25.964,0,0,1,231.77-64.68ZM743.74,0H467.44V-184.5h30.6V-335.7h-30.6V-519.3h194.4v45.9a46.093,46.093,0,0,1,45.9-45.9h126c48.6,0,89.1,39.6,89.1,90v14.4a60.7,60.7,0,0,1-61.2,61.2H743.74v-58.5a30.347,30.347,0,0,0-30.6-30.6,30.348,30.348,0,0,0-30.6,30.6v227.7h61.2Z" transform="translate(413 2144.737)" stroke="#080f43" stroke-width="10"/><path d="M365.4,0c43.2,0,79.2-28.8,90-70.2l65.7-265.5h24.3V-519.3H300.6v183.6h30.6L270-89.1,243-360V-519.3H27v183.6H60.3L93.6,0ZM933.3,0c50.4,0,91.8-39.6,94.5-89.1v-94.5H845.1V-108c0,17.1-14.4,30.6-30.6,30.6A30.347,30.347,0,0,1,783.9-108V-244.8h243.9V-431.1c-2.7-49.5-44.1-88.2-94.5-88.2H691.2c-48.6,0-90,38.7-91.8,87.3V-88.2C601.2-38.7,642.6,0,691.2,0ZM845.1-306.9H783.9V-412.2a30.347,30.347,0,0,1,30.6-30.6c16.2,0,30.6,13.5,30.6,30.6Z" transform="translate(1678 2143)" stroke="#080f43" stroke-width="10"/><path d="M306.971,137.916V-76.821H271.357V-382.69c-31.425,41.9-82.752,58.66-124.652,58.66A158.773,158.773,0,0,1,23.1-382.69V-252.8H58.715V-76.821H23.1V137.916Z" transform="translate(1361 2026.084)" stroke="#080f43" stroke-width="10"/><g transform="translate(77.13 50)"><g transform="translate(1203.525 1445.93) rotate(-53)"><g transform="translate(0)"><path d="M149.961-511.257c-32.414,2.958-65.471,16.593-90.038,37.109A164.912,164.912,0,0,0,33.554-247.959c5.917,7.846,19.487,21.931,27.333,28.3,23.667,19.23,52.094,31.385,83.929,35.758,7.782,1.093,31.771,1.093,39.874.064,48.556-6.431,90.3-32.349,117.371-72.8,5.531-8.232,13.827-24.632,17.365-34.343a199.408,199.408,0,0,0,8.489-34.15c1.608-11.448,1.608-32.735-.064-44.376a193.532,193.532,0,0,0-8.425-34.15c-1.286-3.473-4.566-11-7.4-16.657-14.856-30.292-37.559-54.216-67.336-71C216.976-506.884,182.182-514.216,149.961-511.257Zm36.658,11.834a157.544,157.544,0,0,1,63.22,24.31,139.329,139.329,0,0,1,25.275,21.095,153.108,153.108,0,0,1,40.775,133.836,152.4,152.4,0,0,1-40.839,79.555c-24.568,25.339-55.7,40.9-91.646,45.791-7.846,1.093-29.455,1.093-37.3,0-36.08-4.888-67.979-20.966-92.418-46.627C30.725-265.517,16.64-295.358,12.2-329.316c-.965-7.846-.965-28.169,0-36.015,6.174-47.463,32.157-88.045,72.159-112.87,19.873-12.284,41.032-19.23,68.172-22.445C157.422-501.225,180.188-500.389,186.62-499.424Z" transform="translate(-0.313 511.902)" fill="red"/><path d="M189.577-467.44c-2.38,2.315-2.187,5.531.45,7.718,2.444,2.058,5.209,1.865,7.46-.707,1.672-1.865,1.8-3.473.45-5.981A5.133,5.133,0,0,0,189.577-467.44Z" transform="translate(-67.261 496.639)" fill="red"/><path d="M121.508-457.37a143.237,143.237,0,0,0-57.174,49.65C58.353-398.845,51.6-385.339,51.6-382.381a5.192,5.192,0,0,0,7.46,4.695c1.544-.643,2.508-2.058,4.952-7.267a131.11,131.11,0,0,1,60.969-61.869c7.46-3.666,8.554-4.631,8.554-7.782a4.9,4.9,0,0,0-3.023-4.566C128.39-460.329,127.232-460.136,121.508-457.37Z" transform="translate(-18.615 493.322)" fill="red"/><path d="M184.618-417a105.928,105.928,0,0,0-45.148,17.236c-7.4,5.081-18.458,15.692-24.117,23.153-27.012,35.758-28.3,84.186-3.151,121.809,5.209,7.782,16.528,19.68,23.924,25.146a109.822,109.822,0,0,0,48.364,19.487c9.132,1.222,27.269.386,35.63-1.543,19.423-4.566,35.372-13.12,49.2-26.3,10.612-10.1,17.493-19.551,23.153-31.706a104.069,104.069,0,0,0-15.628-112.484C254.269-408.19,218.64-421.631,184.618-417Zm30.742,11.512c6.753,1.351,9.9,2.315,9.9,2.894,0,.322-4.116,9.325-9.2,20.066l-9.261,19.551H189.763L180.5-382.529c-5.081-10.8-9.261-19.809-9.261-20.066,0-.643,6.817-2.444,13.313-3.473C191.435-407.225,208.543-406.9,215.36-405.488Zm-44.569,28.169c5.6,11.769,10.1,21.738,10.1,22.188,0,.643-8.554,5.981-9.518,5.981-.515-.064-26.947-38.009-27.526-39.488-.193-.579.9-1.672,3.087-3.023,4.695-2.958,12.284-6.946,13.12-7.01C160.436-398.671,165.26-389.024,170.791-377.319Zm70.1-19.358c6.882,3.537,12.155,7.074,11.769,8.1-.579,1.351-27.012,39.424-27.462,39.424-.965,0-9.583-5.4-9.583-6.045,0-1.158,20.13-43.476,20.709-43.476A29.049,29.049,0,0,1,240.892-396.677ZM148.6-362.206l11.705,16.85-2.444,3.473a58.372,58.372,0,0,0-3.987,6.946c-.836,1.929-1.608,3.6-1.736,3.73-.129.257-44.119-3.28-44.5-3.6-.515-.322,3.987-13.441,6.431-18.779a98.97,98.97,0,0,1,15.757-23.153l4.888-5.209,1.093,1.415C136.448-379.7,142.171-371.467,148.6-362.206Zm117.95-15.114a97.2,97.2,0,0,1,20.13,34.15,67.492,67.492,0,0,1,2.251,7.653c0,.707-4.052,1.222-21.352,2.637-11.769.965-21.8,1.736-22.188,1.736-.45,0-1.672-1.8-2.637-4.052a45.884,45.884,0,0,0-4.18-7.01l-2.38-3.087,12.734-18.265c6.946-10.1,12.863-18.329,13.055-18.394A35.78,35.78,0,0,1,266.553-377.319ZM201.532-351.98c2.38.322,3.087.772,4.373,2.83,1.158,1.8,3.473,3.6,8.682,6.689,6.045,3.6,7.589,4.245,10.162,4.245,2.7,0,3.216.257,4.759,2.315a34.828,34.828,0,0,1,3.216,5.274l1.479,3.023-1.415,2.251c-1.286,2.058-1.415,3.087-1.415,11.7,0,8.811.064,9.518,1.479,11.383l1.479,1.994-2.38,4.5c-2.251,4.245-2.444,4.5-4.631,4.5-2.958,0-22.381,11.062-23.86,13.634-1.158,1.994-3.409,2.573-8.1,2.058-3.023-.386-3.473-.643-4.438-2.573-1.736-3.666-14.728-11.255-19.358-11.319-3.344-.064-3.987-.643-7.01-6.3l-2.187-4.052,1.544-2.894c1.415-2.637,1.544-3.666,1.544-11.062s-.129-8.425-1.544-11l-1.544-2.83,2.251-4.373c2.187-4.116,2.38-4.309,4.566-4.309,1.672,0,4.759-1.415,11.962-5.6,8.875-5.145,10.676-6.431,13.12-9.454C195.165-352.43,197.031-352.623,201.532-351.98ZM154.391-319.63c.064.064.129,2.637.129,5.788v5.724l-2.058.322c-3.987.643-46.177,3.923-46.5,3.6-.643-.707-1.093-10.162-.707-14.792l.45-4.823,24.246,2.058C143.265-320.6,154.262-319.63,154.391-319.63Zm136.987,7.589c-.193,3.987-.45,7.46-.707,7.718-.45.386-40.324-2.573-46.241-3.409l-2.444-.386v-5.724a40.675,40.675,0,0,1,.193-5.788c.064,0,11-.965,24.246-2.058l24.117-2.058.514,2.251A52.67,52.67,0,0,1,291.378-312.041ZM153.49-293.39a56.343,56.343,0,0,0,3.987,7.074l2.765,4.116-12.67,18.329L134.9-245.606l-5.145-5.338a88.475,88.475,0,0,1-15.5-22.574c-2.7-5.66-6.689-16.914-6.689-18.779,0-.579.772-.9,2.444-.965,1.286,0,9.776-.707,18.779-1.479,9-.836,18.008-1.544,19.937-1.608l3.537-.064Zm114.22-1.351c11.512.965,21.03,1.8,21.159,1.929.515.45-3.987,13.634-6.431,18.844a96.316,96.316,0,0,1-16.014,23.346l-4.823,5.016L248.931-264,236.2-282.329l2.187-3.023a55.541,55.541,0,0,0,4.18-7.074c1.286-2.573,2.38-3.987,3.151-3.987C246.294-296.413,256.2-295.642,267.711-294.741ZM176.579-275.7c2.573,1.479,4.695,2.7,4.759,2.765.257.129-19.744,42.382-20.323,42.961-.514.514-16.786-8.554-16.786-9.39s26.626-39.038,27.2-39.038A34.049,34.049,0,0,1,176.579-275.7Zm62.77,17.107c7.46,10.676,13.57,19.68,13.57,20,0,1.222-16.207,10.419-16.979,9.647s-20.387-43.218-20.194-43.733c.322-.9,8.361-5.66,9.325-5.531C225.521-278.148,231.953-269.337,239.349-258.6ZM216-245.284c5.081,10.612,9.2,19.615,9.2,20.066.064.386-2.38,1.286-5.531,2.058a90.7,90.7,0,0,1-40.324.386,65.7,65.7,0,0,1-7.911-1.865c-.386-.322,2.187-5.981,14.535-31.964l3.794-8.1,8.554.064,8.554.064Z" transform="translate(-33.812 478.356)" fill="red"/><path d="M236.141-288.487c-4.759,1.994-7.846,4.438-10.226,8.039a21.978,21.978,0,0,0,8.94,32.221c4.888,2.315,12.927,2.38,17.686.193a20.867,20.867,0,0,0,10.8-10.29c1.929-3.859,2.122-4.823,2.122-10.1,0-5.338-.129-6.11-2.187-9.84a26.824,26.824,0,0,0-4.5-6.045C252.734-289.645,243.151-291.445,236.141-288.487Zm13.249,10.933c7.4,4.18,7.139,15.371-.514,19.037-4.952,2.38-9.454,1.479-13.12-2.7C227.844-270.222,238.906-283.471,249.389-277.554Z" transform="translate(-79.482 432.678)" fill="red"/><path d="M398.915-180.129c-1.029.45-2.444,2.573-4.052,6.11A131.406,131.406,0,0,1,319.681-105.4c-3.923,1.415-7.332,3.087-8.168,3.987-3.151,3.344-.707,8.554,3.987,8.554,2.637,0,11.962-3.344,20.709-7.4a142.512,142.512,0,0,0,57.818-49.971c5.4-8.039,13.12-23.024,13.12-25.468,0-1.994-3.344-5.274-5.274-5.209A6.98,6.98,0,0,0,398.915-180.129Z" transform="translate(-110.865 393.778)" fill="red"/></g></g><path d="M624.484,0,810.342,10.62l15.931,15.931,163.7,13.035L1081.163,53.1,1256.4,100.894q61.067,21.241,100.894,63.723,13.275-5.31,7.965-29.206l-5.31-23.9-21.241-7.965s-4.9.365-7.554-10.255-3.066-32.226-3.066-32.226V29.206q11.152-20.71,45.137-18.586l13.922,6.428,4.664,12.158s7.852,36.4,6.525,54.982-11.835,19.361-11.835,19.361v69.033c-10.727-2.813-15.3,30.638-12.473,49.4,8.85,5.31,12.473,5.471,7.162,24.942l-5.31,10.62c4.783,2.05,11.675,6.178,12.2,19.949.794,20.954-6.886,54.395-6.886,54.395h0c-4,6.916-9.957,12.612-18.586,18.586s-9.274,5.713-20.558,2.394-17.107-6.442-24.579-15.67.183-30.616.183-30.616l11.47-38.994a48.535,48.535,0,0,1,10.33-12.1c6.38-5.166,14.21-2.194,14.21-2.194s8.977-18.147,4.453-21.322c-12.43-3.286-41.649,23.345-64.542,33.54-41.55,18.5-66.357,20.357-116.825,31.861s-106.2,15.931-106.2,15.931c-217,2.131-254.491,2.257-263.189,4.6l-2.321,6.016H741.309l-14.9-1.564-101.921-3.746-26.551-5.31-58.412-31.861-2.655,7.965c20.179,24.073,42.482,90.274,42.482,90.274s6.638,29.206,5.31,58.412-1.328,29.206-10.62,58.412-26.551,58.412-26.551,58.412-23.9,41.154-61.068,71.688S398.8,677.052,398.8,677.052l98.239-2.655h77l10.62-50.447,55.757-66.378,58.412-26.551H773.17q55.757,13.275,87.619,50.447,46.2,44.075,42.482,138.066-15.4,77.529-71.688,114.17L767.86,860.255H704.138q-67.44-17.523-103.549-66.378c-15.223-18.763-23.435-36.635-25.913-65.664l-13.914-.713-78.3,1.7-71.819-1.223-62.291-5.782s-45.137-5.31-100.894-26.551S172.452,667.1,125.324,637.226,74.1,598.313,60.246,574.365-.086,434.566.534,400.921c.259-14.064-1.825-11.966.83-27.9s3.146-15.195,9.79-35.826c11.416-35.449,28-65.332,39.889-80.685S92.523,207.9,114.7,191.168s67.971-41.774,111.515-53.1l53.1-10.62,154-10.62L475.8,100.894C558.638,19.117,588.729,6.726,624.484,0ZM823.617,47.792,813,58.412H765.205l-32.763-1.8-124.373,0L568.727,74.343l-37.171,47.792q10.62,26.551-5.31,37.172,15.931,5.31,5.31,37.171l10.62,21.241L600.588,260.2l52.891,8.122,10.832,2.5,45.972,2.406,12.44,2.9H813v10.62l31.06,3.074,16.732,2.236h169.926l52.982-2.518,41.552-5.232,128.5-29.422,63.723-26.551,26.551-26.551v-10.62l-47.792-47.792-122.135-42.482L1041.336,69.033Zm223.029,10.62Zm37.172,5.31v0Zm26.551,5.31v0Zm26.551,5.31v0Zm15.931,5.31v0Zm21.241,5.31v0Zm15.93,5.31v0Zm21.241,5.31v0Zm-881.5,74.343v5.31h31.861l69.033,21.241,53.1,31.861,10.621,10.62-5.31-15.931Q435.972,164.617,329.768,169.927Zm-42.482,47.792-53.1,10.621-63.723,37.171q-58.412,37.171-74.343,122.135v84.963q10.62,47.792,37.171,84.963,42.482,58.412,127.445,84.963h90.274q58.413-10.62,100.894-42.482,63.723-47.792,84.963-132.755,5.31-58.413-5.31-95.584l-47.792-79.653a233.34,233.34,0,0,0-90.274-63.723l-53.1-10.621ZM122.669,238.96Q58.947,286.751,43.016,382.335l5.31,84.964V392.956l10.62-42.482q26.551-63.723,69.033-106.2ZM1269.675,254.89v0Zm-37.172,10.62v0Zm-21.241,5.31v0Zm-21.241,5.31v0Zm-31.861,5.31v0Zm-42.482,10.62Zm-47.792,0v0Zm-217.719,5.31v0Zm154,0v0ZM706.793,541.642,648.38,568.193q-47.792,31.861-63.723,95.584V732.81l26.551,58.412Q648.38,833.7,712.1,849.634h53.1l63.723-26.551q47.792-37.171,63.722-106.2l-5.31-63.723-37.171-63.723Q807.686,531.021,706.793,541.642Z" transform="translate(702.236 704.735) rotate(1)" fill="red" stroke="red" stroke-width="1"/><path d="M8.817,158.667C-42.023-10.155,143.583.121,143.583.121" transform="translate(1184.526 856.987) rotate(-38)" fill="none" stroke="red" stroke-width="10"/><path d="M26.282,404.346c57.727-58.482,84.432-130.245,92.355-181.388C138.636,93.864,0,0,0,0" transform="matrix(-0.993, -0.122, 0.122, -0.993, 794.483, 1318.225)" fill="none" stroke="red" stroke-linecap="round" stroke-linejoin="round" stroke-width="15"/><g transform="translate(684.638 1100.588) rotate(-38)" fill="none" stroke="red" stroke-width="10"><ellipse cx="229.579" cy="228.993" rx="229.579" ry="228.993" stroke="none"/><ellipse cx="229.579" cy="228.993" rx="224.579" ry="223.993" fill="none"/></g></g><text transform="translate(429 2337.425)" fill="red" font-size="153" font-family="Arial-Black, Arial Black" font-weight="800" letter-spacing="0.5em"><tspan x="0" y="0">SAFE MEDICALS</tspan></text></g></g></svg>